<svg xmlns="http://www.w3.org/2000/svg" viewBox="0 0 577.87 97.35"><defs><style>.cls-1,.cls-2{fill:#f9f9fa;stroke:#f9f9fa;stroke-miterlimit:10;}.cls-1{stroke-width:1.12px;}</style></defs><g id="Layer_2" data-name="Layer 2"><g id="Layer_1-2" data-name="Layer 1"><polygon class="cls-1" points="135.91 36.29 135.91 1.2 138.62 1.2 138.62 35.49 157.82 35.49 157.82 36.29 135.91 36.29"/><path class="cls-1" d="M195.74,1.2h-1.28L179.63,36.29h.13l4.69-11h19.72l5.1,11h2.82ZM184.55,25.07l8.56-20h1.6L204,25.07Z"/><polygon class="cls-1" points="268.57 36.29 268.57 1.2 265.86 1.2 265.86 17.47 241.46 17.47 241.46 1.2 238.74 1.2 238.74 36.29 241.46 36.29 241.46 17.78 265.86 17.78 265.86 36.29 268.57 36.29"/><path class="cls-1" d="M333.07,12.75a18.06,18.06,0,0,0-3.57-5.91,19.31,19.31,0,0,0-6.12-4.5A20.1,20.1,0,0,0,314.62.56a19.21,19.21,0,0,0-8.57,1.75,18.35,18.35,0,0,0-5.89,4.45,17.58,17.58,0,0,0-3.38,5.88,19.06,19.06,0,0,0-1.09,6.1,18.94,18.94,0,0,0,1.08,6,18.12,18.12,0,0,0,3.4,5.9,18.55,18.55,0,0,0,5.88,4.49,19.07,19.07,0,0,0,8.57,1.78,21,21,0,0,0,6.15-.84,19.58,19.58,0,0,0,4.94-2.24,17.82,17.82,0,0,0,3.79-3.23,19.58,19.58,0,0,0,2.65-3.87,21,21,0,0,0,1.56-4.12,15.71,15.71,0,0,0,.53-3.89A17.53,17.53,0,0,0,333.07,12.75ZM329.85,26a17.56,17.56,0,0,1-3.53,5.67,16,16,0,0,1-5.24,3.73,15.44,15.44,0,0,1-6.36,1.34,15.16,15.16,0,0,1-6.35-1.34,15.39,15.39,0,0,1-5.05-3.75A17.55,17.55,0,0,1,300,25.94a20.84,20.84,0,0,1-1.2-7.2,20.88,20.88,0,0,1,1.2-7.2,17.66,17.66,0,0,1,3.34-5.68,15.36,15.36,0,0,1,5.05-3.74A15,15,0,0,1,314.72.77a15.44,15.44,0,0,1,6.36,1.34,16.19,16.19,0,0,1,5.24,3.73,17.72,17.72,0,0,1,3.53,5.68,19.68,19.68,0,0,1,1.3,7.22A19.73,19.73,0,0,1,329.85,26Z"/><path class="cls-1" d="M388.85,36.83a3.31,3.31,0,0,0,.58-.15v-.13a6.25,6.25,0,0,1-4.24-1.49,10,10,0,0,1-1.59-1.65c-.48-.6-1-1.3-1.47-2-1.5-2.21-2.63-3.92-3.45-5.22s-1.44-2.27-1.91-3a11.35,11.35,0,0,0-1.06-1.41,2.84,2.84,0,0,0-.8-.58l-1.11-.56a10,10,0,0,0-3.17-1h-6.57V1.41h6.46a11.79,11.79,0,0,1,4,.65,9.68,9.68,0,0,1,3.15,1.82,7.88,7.88,0,0,1,2.06,2.85,8.94,8.94,0,0,1,.7,3.56,9.25,9.25,0,0,1-2.53,6.28A9.52,9.52,0,0,1,375,18.68a9.78,9.78,0,0,0,3.75-1,8.19,8.19,0,0,0,4.15-4.88,9.77,9.77,0,0,0,.48-3,9,9,0,0,0-.51-2.8,7.65,7.65,0,0,0-1.68-2.78,9.63,9.63,0,0,0-3.33-2.18,14.31,14.31,0,0,0-5.49-.9h-11V36.29h2.71V19.86h3.42a10.93,10.93,0,0,1,2.76.3,6.19,6.19,0,0,1,2.17,1.1,8.7,8.7,0,0,1,1.71,1.88c.46.68,1,1.52,1.66,2.5L380,31.88c.5.79,1,1.52,1.5,2.17A8.71,8.71,0,0,0,383,35.59a6,6,0,0,0,1.74,1,6.73,6.73,0,0,0,2.36.36A13.49,13.49,0,0,0,388.85,36.83Z"/><polygon class="cls-1" points="437.39 36.29 437.39 35.49 418.19 35.49 418.19 17.78 434.68 17.78 434.68 17.47 418.19 17.47 418.19 1.99 437.39 1.99 437.39 1.2 415.48 1.2 415.48 36.29 437.39 36.29"/><path class="cls-1" d="M163.63,96.07a25,25,0,0,0,4.89-1.64,17.06,17.06,0,0,0,3.42-2c.54-.44,1-.84,1.39-1.2l-.31-.28a20.74,20.74,0,0,1-14,5.2,20.38,20.38,0,0,1-8.38-1.64,18.08,18.08,0,0,1-6.12-4.41,18.87,18.87,0,0,1-3.69-6.34,22.69,22.69,0,0,1-1.24-7.44,21.11,21.11,0,0,1,1.31-7.55,17.9,17.9,0,0,1,3.7-6,17.16,17.16,0,0,1,5.68-3.93,18,18,0,0,1,7.12-1.41,17.78,17.78,0,0,1,4.81.62,16.52,16.52,0,0,1,3.87,1.6A10.94,10.94,0,0,1,168.94,62a9.11,9.11,0,0,1,1.34,2h2a15.51,15.51,0,0,0-1.39-2,11.78,11.78,0,0,0-3.12-2.66,16.45,16.45,0,0,0-4.48-1.8,24.16,24.16,0,0,0-5.94-.67,26.55,26.55,0,0,0-8.83,1.4,19.28,19.28,0,0,0-6.75,3.93,17.53,17.53,0,0,0-4.32,6.13,20.46,20.46,0,0,0-1.54,8.08A23.56,23.56,0,0,0,137.16,84,18.16,18.16,0,0,0,141,90.44a19,19,0,0,0,6.6,4.56,24.5,24.5,0,0,0,9.67,1.74A28.11,28.11,0,0,0,163.63,96.07Z"/><polygon class="cls-1" points="207.98 96.05 207.98 94.84 187.11 94.84 187.11 75.93 205.03 75.93 205.03 75.25 187.11 75.25 187.11 58.76 207.98 58.76 207.98 57.56 183.83 57.56 183.83 96.05 207.98 96.05"/><polygon class="cls-1" points="219.31 96.05 219.31 65.12 220.93 65.12 251.91 95.65 251.91 57.56 251.23 57.56 251.23 88.48 249.6 88.48 218.63 57.95 218.63 96.05 219.31 96.05"/><polygon class="cls-1" points="280.75 96.05 280.75 58.76 296.24 58.76 296.24 57.56 261.98 57.56 261.98 58.76 277.47 58.76 277.47 96.05 280.75 96.05"/><path class="cls-1" d="M316.56,77.56h-7V58.13h6.84a12.74,12.74,0,0,1,4.31.69,10.46,10.46,0,0,1,3.37,2,8.58,8.58,0,0,1,2.19,3,9.54,9.54,0,0,1,.75,3.8,9.88,9.88,0,0,1-2.7,6.72,10.57,10.57,0,0,1-3.3,2.33c-.24.11-.5.21-.76.3l.8,0a10.63,10.63,0,0,0,4.36-1.1,9.1,9.1,0,0,0,4.59-5.4,10.93,10.93,0,0,0,.53-3.26,10.09,10.09,0,0,0-.56-3.1A8.46,8.46,0,0,0,328.15,61a10.52,10.52,0,0,0-3.67-2.42,15.78,15.78,0,0,0-6-1H306.31V96.05h3.29V78.18h3.54a11.32,11.32,0,0,1,2.95.33,6.33,6.33,0,0,1,2.3,1.16,9.19,9.19,0,0,1,1.83,2c.5.74,1.11,1.65,1.8,2.72l4.6,6.78c.55.86,1.1,1.66,1.64,2.37a9.8,9.8,0,0,0,1.63,1.7,7.21,7.21,0,0,0,1.94,1.09,7.7,7.7,0,0,0,2.63.4,14.32,14.32,0,0,0,1.94-.11,2.86,2.86,0,0,0,.77-.21V96H337a7.14,7.14,0,0,1-2.49-.41,7.43,7.43,0,0,1-2-1.17,11.67,11.67,0,0,1-1.71-1.78c-.51-.66-1.05-1.41-1.59-2.22-1.6-2.36-2.86-4.27-3.74-5.67s-1.57-2.47-2.08-3.23A13.31,13.31,0,0,0,322.21,80a3.25,3.25,0,0,0-.91-.67s-.85-.41-1.13-.56A11,11,0,0,0,316.56,77.56Z"/><path class="cls-1" d="M361,57.56h-1.61L343.11,96h.52l5.09-11.9h21.22L375.49,96h3.43Zm-12,26,9.17-21.46h1.51l10,21.46Z"/><polygon class="cls-1" points="414.27 96.05 414.27 94.84 393.41 94.84 393.41 57.56 390.12 57.56 390.12 96.05 414.27 96.05"/><path class="cls-1" d="M468.82,96.07a25.08,25.08,0,0,0,4.9-1.64,16.78,16.78,0,0,0,3.41-2c.54-.44,1-.84,1.39-1.2l-.31-.28a20.72,20.72,0,0,1-14,5.2,20.38,20.38,0,0,1-8.38-1.64,18.08,18.08,0,0,1-6.12-4.41A18.87,18.87,0,0,1,446,83.72a22.69,22.69,0,0,1-1.24-7.44,21.11,21.11,0,0,1,1.31-7.55,17.9,17.9,0,0,1,3.7-6,17.16,17.16,0,0,1,5.68-3.93,18,18,0,0,1,7.12-1.41,17.73,17.73,0,0,1,4.81.62,16.35,16.35,0,0,1,3.87,1.6A10.94,10.94,0,0,1,474.13,62a9.11,9.11,0,0,1,1.34,2h2a14.59,14.59,0,0,0-1.39-2A11.78,11.78,0,0,0,473,59.33a16.45,16.45,0,0,0-4.48-1.8,24.16,24.16,0,0,0-5.94-.67,26.55,26.55,0,0,0-8.83,1.4A19.15,19.15,0,0,0,447,62.19a17.43,17.43,0,0,0-4.33,6.13,20.46,20.46,0,0,0-1.54,8.08A23.52,23.52,0,0,0,442.35,84a18.16,18.16,0,0,0,3.81,6.47,19,19,0,0,0,6.6,4.56,24.54,24.54,0,0,0,9.67,1.74A28.11,28.11,0,0,0,468.82,96.07Z"/><rect class="cls-1" x="491.33" y="57.56" width="3.29" height="38.49"/><polygon class="cls-1" points="525.77 96.05 525.77 58.76 541.26 58.76 541.26 57.56 507 57.56 507 58.76 522.49 58.76 522.49 96.05 525.77 96.05"/><polygon class="cls-1" points="563.4 96.05 563.4 80.93 576.9 57.56 576.06 57.56 563.69 78.89 562.3 78.89 550.51 57.56 546.82 57.56 560.12 81.46 560.12 96.05 563.4 96.05"/><path class="cls-2" d="M2.43,96.85A1.78,1.78,0,0,1,.65,95.07L.51,4.17h0V2.47A1.78,1.78,0,0,1,2.28.69H6.76L8,.7H23.82v0h1.79a1.78,1.78,0,0,1,1.78,1.78l.1,69.28a1.78,1.78,0,0,1-1.78,1.78A1.75,1.75,0,0,1,24.46,73a1.8,1.8,0,0,1-.53-1.26L23.84,8.1A3.86,3.86,0,0,0,20,4.26H7.92A3.86,3.86,0,0,0,4.07,8.11L4.2,89.44a3.84,3.84,0,0,0,3.85,3.84l15.91,0v0h7.51l11.63,0a3.85,3.85,0,0,0,3.84-3.84l0-29.19a1.69,1.69,0,0,1,.51-1.26,1.75,1.75,0,0,1,1.26-.53,1.79,1.79,0,0,1,1.25.52,1.76,1.76,0,0,1,.53,1.26L50.5,95A1.75,1.75,0,0,1,50,96.25a1.76,1.76,0,0,1-1.26.53l-46.3.07Zm67.93-.13a.44.44,0,0,1-.43-.44L69.82,36a1.78,1.78,0,0,1,3.56,0l.09,53.33a3.85,3.85,0,0,0,3.84,3.83H89.39a3.82,3.82,0,0,0,3.84-3.85l0-36.17a1.77,1.77,0,0,1,.52-1.26,1.78,1.78,0,0,1,3,1.26l.06,40.17h0v1.65A1.79,1.79,0,0,1,95,96.72H90.62l-1.31,0H73.58v0Zm24.58-57.1a1.79,1.79,0,0,1-1.79-1.79L93.12,8a3.85,3.85,0,0,0-3.84-3.84H58.71v0h-4.5A3.86,3.86,0,0,0,50.37,8l.05,29.19A1.8,1.8,0,0,1,48.63,39a1.75,1.75,0,0,1-1.24-.52,1.77,1.77,0,0,1-.54-1.26L46.8,2.41A1.79,1.79,0,0,1,48.58.62L94.88.56a1.78,1.78,0,0,1,1.79,1.77l0,35.5a1.79,1.79,0,0,1-1.78,1.79Z"/></g></g></svg>