<svg xmlns="http://www.w3.org/2000/svg" viewBox="0 0 128.75 128.74"><defs><style>.cls-1{fill:#fff;}</style></defs><g id="Layer_2" data-name="Layer 2"><g id="_2019_Collections" data-name="2019 Collections"><path class="cls-1" d="M87.66,93.16a83.26,83.26,0,0,0-8.8.06,9.79,9.79,0,0,0-8.5,6.71,10.32,10.32,0,0,0,2,10.9,11.21,11.21,0,0,1,2.55,5,10.65,10.65,0,0,1-10.37,12.88c-19.6-.14-35.93-7.63-48.86-22.31A61.85,61.85,0,0,1,.58,73.09C-4,38.6,18.93,8.08,50.8,1.58c21.87-4.46,41.72.53,58.8,15.06a53,53,0,0,1,18.52,32.77c2,12.72-.78,24.09-10.12,33.34A34.62,34.62,0,0,1,93.38,93c-1.91,0-3.82,0-5.72,0ZM46.48,35.81A10.71,10.71,0,1,0,35.78,25,10.78,10.78,0,0,0,46.48,35.81Zm35.73,0A10.71,10.71,0,1,0,71.52,25,10.76,10.76,0,0,0,82.21,35.81ZM35.76,53.68A10.72,10.72,0,1,0,25,64.41,10.75,10.75,0,0,0,35.76,53.68Zm68-10.7a10.72,10.72,0,1,0,10.66,10.7A10.74,10.74,0,0,0,103.74,43Z"/></g></g></svg>