<svg xmlns="http://www.w3.org/2000/svg" viewBox="0 0 97.31 97.29"><defs><style>.cls-1{fill:#f9f9fa;stroke:#f9f9fa;stroke-miterlimit:10;}</style></defs><g id="Layer_2" data-name="Layer 2"><g id="Layer_1-2" data-name="Layer 1"><path class="cls-1" d="M2.43,96.79A1.78,1.78,0,0,1,.65,95L.51,4.11h0V2.41A1.78,1.78,0,0,1,2.28.63H6.76L8,.64H23.82v0h1.79a1.78,1.78,0,0,1,1.78,1.78l.1,69.28a1.78,1.78,0,0,1-1.78,1.78,1.75,1.75,0,0,1-1.25-.51,1.8,1.8,0,0,1-.53-1.26L23.84,8A3.85,3.85,0,0,0,20,4.21H7.92A3.85,3.85,0,0,0,4.07,8.06L4.2,89.38a3.84,3.84,0,0,0,3.85,3.84L24,93.2v0h7.51l11.63,0a3.85,3.85,0,0,0,3.84-3.84l0-29.19a1.69,1.69,0,0,1,.51-1.26,1.75,1.75,0,0,1,2.51,0,1.72,1.72,0,0,1,.53,1.25l0,34.81a1.76,1.76,0,0,1-1.77,1.78l-46.3.07Zm67.93-.13a.44.44,0,0,1-.43-.44l-.11-60.31a1.78,1.78,0,0,1,3.56,0l.09,53.33a3.85,3.85,0,0,0,3.84,3.83H89.39a3.82,3.82,0,0,0,3.84-3.85l0-36.17a1.77,1.77,0,0,1,.52-1.26,1.78,1.78,0,0,1,3,1.26l.06,40.17h0v1.65A1.79,1.79,0,0,1,95,96.66H73.58v0Zm24.58-57.1a1.79,1.79,0,0,1-1.79-1.79l0-29.87a3.85,3.85,0,0,0-3.84-3.84H58.71v0h-4.5A3.86,3.86,0,0,0,50.37,8l.05,29.19a1.8,1.8,0,0,1-1.79,1.79,1.75,1.75,0,0,1-1.24-.52,1.77,1.77,0,0,1-.54-1.26L46.8,2.35A1.79,1.79,0,0,1,48.58.56L94.88.5a1.79,1.79,0,0,1,1.79,1.78l0,35.49a1.79,1.79,0,0,1-1.78,1.79Z"/></g></g></svg>